<svg xmlns="http://www.w3.org/2000/svg" viewBox="0 0 100 100" width="100" height="100" role="img" aria-label="Emblème Maître Sékou"><metadata><rdf:RDF xmlns:rdf="http://www.w3.org/1999/02/22-rdf-syntax-ns#" xmlns:dc="http://purl.org/dc/elements/1.1/"><rdf:Description><dc:creator>RealFaviconGenerator</dc:creator><dc:source>https://realfavicongenerator.net</dc:source></rdf:Description></rdf:RDF></metadata><circle cx="50" cy="50" r="47" fill="none" stroke="#c79a4b" stroke-width="1.4"></circle><circle cx="50" cy="50" r="39" fill="none" stroke="#c79a4b" stroke-width="0.7" opacity="0.5"></circle><circle cx="50" cy="3.2" r="1.5" fill="#c4502e"></circle><circle cx="96.8" cy="50" r="1.5" fill="#c4502e"></circle><circle cx="50" cy="96.8" r="1.5" fill="#c4502e"></circle><circle cx="3.2" cy="50" r="1.5" fill="#c4502e"></circle><path d="M50 12 L55.7 36.1 L76.9 23.1 L63.9 44.3 L88 50 L63.9 55.7 L76.9 76.9 L55.7 63.9 L50 88 L44.3 63.9 L23.1 76.9 L36.1 55.7 L12 50 L36.1 44.3 L23.1 23.1 L44.3 36.1 Z" fill="#c79a4b"></path><path d="M50 30 L54 46 L70 50 L54 54 L50 70 L46 54 L30 50 L46 46 Z" fill="#c4502e"></path><circle cx="50" cy="50" r="2.6" fill="#f3ead7"></circle></svg>